<svg xmlns="http://www.w3.org/2000/svg" viewBox="0 0 103.13 57.87"><title>logo</title><g id="Capa_2" data-name="Capa 2"><g id="Capa_1-2" data-name="Capa 1"><path d="M24.05,28a11.81,11.81,0,0,0,7.38-4.34A11.76,11.76,0,0,0,32.95,21a13.8,13.8,0,0,0,.95-3.56,18,18,0,0,0,.15-2.37q0-7.11-4.71-10.84c-.15-.12-.33-.23-.49-.34A14.69,14.69,0,0,0,26,2.28,27.12,27.12,0,0,0,15.46.5H.5V57.37H18.82q8.4,0,13.1-4.2t4.71-11.46A13.13,13.13,0,0,0,33,32.63,14.23,14.23,0,0,0,24.05,28ZM2.61,2.61H15.93Q23.1,2.7,27,5.19q4.85,3.05,4.86,9.72a16.68,16.68,0,0,1-.22,2.71A9.86,9.86,0,0,1,28,24.19q-3.95,3-11.72,3H2.61ZM30.4,51.69q-4.12,3.57-11.35,3.57H2.61v-26H19.87q6.68.12,10.66,3.61a11.3,11.3,0,0,1,4,8.89Q34.52,48.11,30.4,51.69Z"/><path d="M18.82,57.87H0V0H15.46A27.76,27.76,0,0,1,26.15,1.82a15.22,15.22,0,0,1,3,1.66l.18.12.33.23c3.25,2.58,4.9,6.35,4.9,11.23a18.55,18.55,0,0,1-.16,2.44,14.36,14.36,0,0,1-1,3.69,12.32,12.32,0,0,1-1.58,2.73,11.79,11.79,0,0,1-5.58,4,14.66,14.66,0,0,1,7.16,4.41,13.68,13.68,0,0,1,3.72,9.42c0,5-1.64,9-4.87,11.84S24.52,57.87,18.82,57.87ZM1,56.87H18.82c5.45,0,9.74-1.37,12.77-4.07s4.54-6.42,4.54-11.09A12.71,12.71,0,0,0,32.67,33,13.81,13.81,0,0,0,24,28.45l-3-.4,3-.59A11.37,11.37,0,0,0,31,23.32a11.31,11.31,0,0,0,1.45-2.51,13.36,13.36,0,0,0,.91-3.43,17.55,17.55,0,0,0,.15-2.3C33.55,10.51,32,7,29,4.62l-.27-.19-.21-.14a14.25,14.25,0,0,0-2.8-1.55A26.78,26.78,0,0,0,15.46,1H1Zm18.05-1.11H2.11v-27H19.87c4.56.08,8.26,1.34,11,3.74A11.83,11.83,0,0,1,35,41.78c0,4.35-1.44,7.81-4.29,10.28h0C27.9,54.52,24,55.76,19.05,55.76Zm-15.94-1H19.05c4.67,0,8.38-1.16,11-3.45h0C32.69,49,34,45.83,34,41.78a10.87,10.87,0,0,0-3.81-8.51c-2.55-2.24-6-3.41-10.34-3.49H3.11ZM16.24,27.68H2.11V2.11H15.93c4.85.06,8.67,1,11.38,2.66,3.38,2.13,5.09,5.54,5.09,10.14a17.36,17.36,0,0,1-.22,2.79,10.39,10.39,0,0,1-3.92,6.89C25.55,26.64,21.51,27.68,16.24,27.68Zm-13.13-1H16.24c5,0,8.89-1,11.42-2.89a9.42,9.42,0,0,0,3.54-6.25,16.3,16.3,0,0,0,.21-2.63c0-4.29-1.51-7.34-4.63-9.3C24.23,4,20.57,3.17,15.92,3.11H3.11Z"/><path d="M71.58,2.61,72.36.5h-2.3l-.78,2.11L66.61,9.77,64.5,15.44,51,51.82l-1.13,3.44-1.13-3.44L35.9,17.44A13.8,13.8,0,0,1,34.95,21L48.54,57.37h2.58L64.5,21.55l2.11-5.65Z"/><path d="M51.46,57.87H48.19L34.41,21l.08-.18a13.36,13.36,0,0,0,.91-3.43l.26-2,13.5,36.27.66,2,.66-2L69.71,0h3.37Zm-2.58-1h1.88L71.64,1H70.41l-19,51-1.6,4.86L48.22,52,36.05,19.28A13.68,13.68,0,0,1,35.49,21Z"/><path d="M99,32.63a14.23,14.23,0,0,0-9-4.67,11.81,11.81,0,0,0,7.38-4.34,13.61,13.61,0,0,0,2.62-8.55q0-7.11-4.71-10.84T81.46.5h-7.1l-.79,2.11h8.35q16,.2,16,12.3,0,6.29-3.94,9.28t-11.72,3H68.61V15.9L66.5,21.55V57.37H84.82q8.4,0,13.1-4.2t4.71-11.46A13.13,13.13,0,0,0,99,32.63ZM96.4,51.69q-4.12,3.57-11.35,3.57H68.61v-26H85.87q6.68.12,10.66,3.61a11.3,11.3,0,0,1,4,8.89Q100.52,48.11,96.4,51.69Z"/><path d="M84.82,57.87H66l0-36.5,3.08-8.24V26.68H82.24c5,0,8.89-1,11.42-2.89s3.75-4.87,3.75-8.88c0-7.81-5.06-11.68-15.48-11.8H72.85L74,0h7.44c6.21,0,11,1.29,14.2,3.84s4.9,6.35,4.9,11.23a14.16,14.16,0,0,1-2.72,8.86,11.79,11.79,0,0,1-5.58,4,14.66,14.66,0,0,1,7.16,4.41h0a13.68,13.68,0,0,1,3.72,9.42c0,5-1.64,9-4.87,11.84S90.52,57.87,84.82,57.87ZM67,56.87H84.82c5.45,0,9.74-1.37,12.77-4.07s4.54-6.42,4.54-11.09A12.71,12.71,0,0,0,98.67,33h0A13.81,13.81,0,0,0,90,28.45l-3-.4,3-.59A11.37,11.37,0,0,0,97,23.32a13.19,13.19,0,0,0,2.51-8.25C99.55,10.51,98,7,95,4.62S87.43,1,81.46,1H74.71L74.3,2.11h7.63c10.93.13,16.47,4.44,16.47,12.8,0,4.34-1.39,7.59-4.14,9.67s-6.75,3.09-12,3.09H68.11v-9l-1.11,3Zm18.05-1.11H68.11v-27H85.87c4.56.08,8.26,1.34,11,3.74A11.83,11.83,0,0,1,101,41.78c0,4.35-1.44,7.81-4.29,10.28h0C93.9,54.52,90,55.76,85.05,55.76Zm-15.94-1H85.05c4.67,0,8.38-1.16,11-3.45h0C98.69,49,100,45.83,100,41.78a10.87,10.87,0,0,0-3.81-8.51c-2.55-2.24-6-3.41-10.34-3.49H69.11Z"/></g></g></svg>