<svg xmlns="http://www.w3.org/2000/svg" viewBox="0 0 464.1 66"><defs><style>.cls-1{fill:none;}.cls-2{fill:#3976c0;}</style></defs><title>Recurso 3</title><g id="Capa_2" data-name="Capa 2"><g id="Capa_1-2" data-name="Capa 1"><path class="cls-1" d="M24.78,43.47a6.43,6.43,0,0,0,2.07-5,5.82,5.82,0,0,0-1.58-4,6.24,6.24,0,0,0-3-1.87,5,5,0,0,0,2.37-1.68,5.24,5.24,0,0,0,.67-1.16,6.11,6.11,0,0,0,.42-1.57,7.89,7.89,0,0,0,.07-1,5.76,5.76,0,0,0-2.08-4.78l-.14-.1-.08-.05a6.48,6.48,0,0,0-1.28-.71,11.81,11.81,0,0,0-4.55-.77H11.06V45.31h8A8.32,8.32,0,0,0,24.78,43.47ZM12.38,22h5.45a8.93,8.93,0,0,1,4.62,1.07,4.29,4.29,0,0,1,2,4,6.93,6.93,0,0,1-.09,1.12,4,4,0,0,1-1.5,2.66A8,8,0,0,1,18,32H12.38Zm0,11.35h7.13a6.65,6.65,0,0,1,4.4,1.48,4.62,4.62,0,0,1,1.62,3.62,5.1,5.1,0,0,1-1.68,4.05A7,7,0,0,1,19.17,44H12.38Z"/><polygon class="cls-1" points="212.11 29.96 211.9 29.15 211.65 29.92 211.36 30.88 208.4 38.45 215.4 38.45 212.39 30.88 212.11 29.96"/><polygon class="cls-1" points="315.18 29.96 314.96 29.15 314.72 29.92 314.43 30.88 311.46 38.45 318.46 38.45 315.46 30.88 315.18 29.96"/><path class="cls-1" d="M362.2,33.64a3.64,3.64,0,0,0,1.24-3,3.39,3.39,0,0,0-1-2.63,4.8,4.8,0,0,0-3-1.08h-5.55v7.71H359A4.93,4.93,0,0,0,362.2,33.64Z"/><path class="cls-1" d="M25.7,29.62l5.86,15.69H33l9.2-24.62H40.72l-8.18,22-.28.85L32,42.66,26.24,27.23l-.11.85a5.68,5.68,0,0,1-.39,1.46Z"/><path class="cls-1" d="M45.92,22c4.43.05,6.59,1.7,6.59,5a4.45,4.45,0,0,1-1.59,3.78A8,8,0,0,1,46.05,32H40.46V26.28l-1.31,3.5V45.31h8a8.32,8.32,0,0,0,5.72-1.84,6.43,6.43,0,0,0,2.07-5,5.82,5.82,0,0,0-1.58-4,6.24,6.24,0,0,0-3-1.87,5,5,0,0,0,2.37-1.68,6,6,0,0,0,1.16-3.77,5.76,5.76,0,0,0-2.08-4.78,9.61,9.61,0,0,0-6-1.63H42.55L42.06,22ZM52,34.85a4.62,4.62,0,0,1,1.62,3.62,5.1,5.1,0,0,1-1.68,4.05A7,7,0,0,1,47.25,44H40.46V33.36h7.13A6.65,6.65,0,0,1,52,34.85Z"/><polygon class="cls-1" points="391.76 29.96 391.55 29.15 391.3 29.92 391.02 30.88 388.05 38.45 395.05 38.45 392.05 30.88 391.76 29.96"/><path class="cls-1" d="M359.2,37.38h-5.3v8.95l2.55.11,2.3.07A7.06,7.06,0,0,0,363,45.38a3.85,3.85,0,0,0,1.52-3.29,4.44,4.44,0,0,0-1.4-3.39A5.55,5.55,0,0,0,359.2,37.38Z"/><path class="cls-2" d="M23.86,42.52a5.1,5.1,0,0,0,1.68-4.05,4.62,4.62,0,0,0-1.62-3.62,6.65,6.65,0,0,0-4.4-1.48H12.38V44h6.78A7,7,0,0,0,23.86,42.52Z"/><path class="cls-2" d="M22.83,30.81a4,4,0,0,0,1.5-2.66A6.93,6.93,0,0,0,24.42,27a4.29,4.29,0,0,0-2-4A8.93,8.93,0,0,0,17.84,22H12.38V32H18A8,8,0,0,0,22.83,30.81Z"/><path class="cls-2" d="M40.46,33.36V44h6.78a7,7,0,0,0,4.69-1.47,5.1,5.1,0,0,0,1.68-4.05A4.62,4.62,0,0,0,52,34.85a6.65,6.65,0,0,0-4.4-1.48Z"/><path class="cls-2" d="M0,10.38V66H55.62A10.38,10.38,0,0,0,66,55.62V0H10.38A10.38,10.38,0,0,0,0,10.38ZM45.72,20.69a9.61,9.61,0,0,1,6,1.63,5.76,5.76,0,0,1,2.08,4.78,6,6,0,0,1-1.16,3.77,5,5,0,0,1-2.37,1.68,6.24,6.24,0,0,1,3,1.87,5.82,5.82,0,0,1,1.58,4,6.43,6.43,0,0,1-2.07,5,8.32,8.32,0,0,1-5.72,1.84h-8V29.78l1.31-3.5V32h5.59a8,8,0,0,0,4.86-1.23A4.45,4.45,0,0,0,52.5,27c0-3.32-2.15-5-6.59-5H42.06l.49-1.32ZM26.24,27.23,32,42.66l.28.86.28-.85,8.18-22h1.44L33,45.31H31.56L25.7,29.62l0-.08a5.68,5.68,0,0,0,.39-1.46ZM11.06,20.69h6.58a11.81,11.81,0,0,1,4.55.77,6.48,6.48,0,0,1,1.28.71l.08.05.14.1a5.76,5.76,0,0,1,2.08,4.78,7.89,7.89,0,0,1-.07,1,6.11,6.11,0,0,1-.42,1.57,5.24,5.24,0,0,1-.67,1.16,5,5,0,0,1-2.37,1.68,6.24,6.24,0,0,1,3,1.87,5.82,5.82,0,0,1,1.58,4,6.43,6.43,0,0,1-2.07,5,8.32,8.32,0,0,1-5.72,1.84h-8Z"/><path d="M99.35,44.17,93.06,26.88A3.61,3.61,0,0,0,91.61,25a4.47,4.47,0,0,0-2.37-.58v2.76a5.22,5.22,0,0,1,.85.18.55.55,0,0,1,.28.32l7.71,21.21h2.58l8.45-24.33h-2.94Z"/><rect x="123.99" y="24.58" width="2.9" height="24.29"/><polygon points="146.91 24.59 144.01 24.59 144.01 48.88 158.82 48.88 158.82 46.19 146.91 46.19 146.91 24.59"/><polygon points="176.57 24.59 173.67 24.59 173.67 48.88 188.49 48.88 188.49 46.19 176.57 46.19 176.57 24.59"/><path d="M211.33,23.91,201,48.88H204l3.25-7.81h9.23l3.32,7.81h3.08l-10.43-25Zm-2.93,14.53,3-7.57.28-1,.25-.78.21.81.28.92,3,7.57Z"/><path d="M247.11,38.69h8.34v.67A6.5,6.5,0,0,1,254.38,43a7.79,7.79,0,0,1-2.81,2.62,7.37,7.37,0,0,1-3.61,1,9,9,0,0,1-5-1.29,7.9,7.9,0,0,1-3-3.43,11.19,11.19,0,0,1-1-4.69,10.62,10.62,0,0,1,1.22-5,9.92,9.92,0,0,1,3.36-3.75A8.38,8.38,0,0,1,248.35,27a9.34,9.34,0,0,1,2.63.39,5.88,5.88,0,0,1,2.21,1.15,2.36,2.36,0,0,1,.88,1.86l2.65,0a4.35,4.35,0,0,0-1.17-3.18,8,8,0,0,0-3.2-2.12,11.08,11.08,0,0,0-3.94-.74,12,12,0,0,0-6.36,1.7,11.76,11.76,0,0,0-4.35,4.63,14.25,14.25,0,0,0-.19,12.55,10.62,10.62,0,0,0,4,4.4,11.84,11.84,0,0,0,6.36,1.64A10.47,10.47,0,0,0,253,47.92a10.11,10.11,0,0,0,3.82-3.64,9.93,9.93,0,0,0,1.43-5.3V36H247.11Z"/><path d="M289.75,46.58a.83.83,0,0,1-.48-.16,3,3,0,0,1-.55-.55q-.35-.46-3.11-4.17l-1.31-1.77a4.5,4.5,0,0,0-1-1,6,6,0,0,0-1.5-.58,11.29,11.29,0,0,0,2.83-.25,5.28,5.28,0,0,0,2.93-2.3,7.4,7.4,0,0,0,.3-7.58,7.09,7.09,0,0,0-2.48-2.63,6.41,6.41,0,0,0-3.48-1h-8.13V48.88h2.9V27.27h5.09a3.71,3.71,0,0,1,3,1.34,5.15,5.15,0,0,1,1.15,3.47,4.55,4.55,0,0,1-1.2,3.34,4.41,4.41,0,0,1-3.29,1.22h-3.39v2.72a5.86,5.86,0,0,1,2.14.41,4.17,4.17,0,0,1,1.38.9,16,16,0,0,1,1.18,1.41l4.1,5.62a3.56,3.56,0,0,0,3,1.49,2.64,2.64,0,0,0,2.05-.71l-1.27-2.23A1,1,0,0,1,289.75,46.58Z"/><path d="M314.4,23.91,304,48.88h3.08l3.25-7.81h9.23l3.32,7.81H326l-10.43-25Zm-2.93,14.53,3-7.57.28-1,.25-.78.21.81.28.92,3,7.57Z"/><path d="M364,36.22a4.08,4.08,0,0,0-.65-.28,2.09,2.09,0,0,0-.62-.14,6.55,6.55,0,0,0,.74-.28,4.9,4.9,0,0,0,2.86-4.7,6.26,6.26,0,0,0-1.17-3.75,6.82,6.82,0,0,0-3.22-2.4,8.38,8.38,0,0,0-3-.46h-8V48.77l2.16.25q1.59.18,5.23.18a13.83,13.83,0,0,0,4.14-.5,6.73,6.73,0,0,0,3.61-2.56,6.91,6.91,0,0,0,1.27-4A6.49,6.49,0,0,0,364,36.22ZM353.89,27h5.55a4.8,4.8,0,0,1,3,1.08,3.39,3.39,0,0,1,1,2.63,3.64,3.64,0,0,1-1.24,3,4.93,4.93,0,0,1-3.25,1h-5.06ZM363,45.38a7.06,7.06,0,0,1-4.28,1.13l-2.3-.07-2.55-.11V37.38h5.3a5.55,5.55,0,0,1,3.94,1.31,4.44,4.44,0,0,1,1.4,3.39A3.85,3.85,0,0,1,363,45.38Z"/><path d="M391,23.91l-10.36,25h3.08L387,41.06h9.23l3.32,7.81h3.08l-10.43-25ZM388,38.45l3-7.57.28-1,.25-.78.21.81.28.92,3,7.57Z"/><polygon points="398.27 19.28 396.71 16.77 390.28 20.98 391.3 22.92 398.27 19.28"/><polygon points="420.15 37.35 429.74 37.35 429.74 34.66 420.15 34.66 420.15 27.27 433.17 27.27 433.17 24.59 417.33 24.59 417.33 48.88 433.84 48.88 433.84 46.19 420.15 46.19 420.15 37.35"/><polygon points="451.34 46.19 463.4 25.54 463.4 24.66 447.45 24.66 447.45 27.34 459.19 27.34 447.13 47.89 447.13 48.88 464.1 48.88 464.1 46.19 451.34 46.19"/></g></g></svg>